<svg width="16" height="16" viewBox="0 0 16 16" fill="none" xmlns="http://www.w3.org/2000/svg">
<path fill-rule="evenodd" clip-rule="evenodd" d="M8.53336 2.93336C8.53336 2.63881 8.29457 2.40002 8.00002 2.40002C7.70547 2.40002 7.46669 2.63881 7.46669 2.93336V7.46669H2.93336C2.63881 7.46669 2.40002 7.70547 2.40002 8.00002C2.40002 8.29457 2.63881 8.53336 2.93336 8.53336H7.46669V13.0667C7.46669 13.3612 7.70547 13.6 8.00002 13.6C8.29457 13.6 8.53336 13.3612 8.53336 13.0667V8.53336H13.0667C13.3612 8.53336 13.6 8.29457 13.6 8.00002C13.6 7.70547 13.3612 7.46669 13.0667 7.46669H8.53336V2.93336Z" fill="#09090B"/>
</svg>
