<svg xmlns="http://www.w3.org/2000/svg" height="800" width="1200" viewBox="-55.89465 -55.925 484.4203 335.55"><path d="M106.9 177.8H98c-.6 0-1.1.5-1.1 1.1v22.8c0 3.7-1.5 5.7-4.9 5.7-3.4 0-4.9-2-4.9-5.7v-22.8c0-.6-.4-1.1-1.1-1.1h-9c-.6 0-1.1.5-1.1 1.1v25c0 7.7 5.6 14 16 14 10.5 0 16.2-6.2 16.2-14v-25c0-.6-.5-1.1-1.2-1.1m64.6 16l-6.5-2.2c-1.9-.7-2.1-1.7-2.1-2.4 0-1 1-2 2.9-2 2.1 0 5.1.6 8 2.8.4.3 1 .3 1.3-.1l5-6.3c.3-.4.3-1-.1-1.4-4.3-3.6-9.5-4.9-14.3-4.9-9.3 0-14.9 5.8-14.9 12.1 0 4.9 2.9 9.5 9 11.5l5.7 2c2.8 1 3.3 1.7 3.3 2.9 0 1.1-1.1 2.3-3.4 2.3-3.2 0-6.9-1.9-9.4-4-.4-.3-1-.3-1.3.1l-5.1 6.8c-.3.4-.3 1 .1 1.4 3.7 3.2 9.2 5.6 16.2 5.6 8.7 0 15.1-5.1 15.1-12.7 0-5.3-3.3-9.4-9.5-11.5m-40.8.8h-5.8v-6.8h5.8c3.3 0 4.5 1.5 4.5 3.4s-1.3 3.4-4.5 3.4m8.8 7.9c4.8-2.4 7.2-6 7.2-11.5 0-6.9-5.6-13.1-15.1-13.1h-17.1c-.6 0-1 .6-1 1.1v37.2c0 .6.5 1 1 1h9.2c.6 0 1-.5 1-1v-12h3.6l6.5 12.1c.3.5.9.9 1.5.9h10.6c.6 0 .8-.4.5-.9zM28 177.8H1.3c-.8 0-1.3.6-1.3 1.2v37c0 .6.5 1.1 1.1 1.1h9c.6 0 1-.6 1-1.1v-12h11.4c.6 0 1.1-.4 1.2-1l1.7-8.2c.1-.5-.1-1-.8-1H11.2v-6h15.1c.6 0 1.1-.4 1.2-1l1.6-7.7c.1-.6-.3-1.3-1.1-1.3m341.8 10.1c.6 0 1.1-.4 1.2-1l1.6-7.7c.1-.7 0-1.3-1-1.3h-26.9c-.8 0-1.2.6-1.2 1.2v37c0 .6.5 1.1 1.1 1.1h24.5c.6 0 1.1-.4 1.2-1l1.6-7.7c.1-.7 0-1.3-1-1.3h-16.3v-4.5H366c.6 0 1.1-.4 1.2-1l1.7-8.2c.1-.5-.1-1-.8-1h-13.5V188h15.2zm-87.6 12.2h-3.6l3.6-12 3.6 12zm7.4-21.4c-.1-.5-.7-.9-1.2-.9h-12.3c-.5 0-1.1.4-1.2.9l-11.3 37.5c-.2.5.1 1 .7 1h10.1c.5 0 1.1-.5 1.2-1l1.6-5.7h10.1l1.7 5.7c.1.5.7 1 1.2 1h10c.5 0 .8-.5.7-1zm-29.1-.9h-8.9c-.6 0-1.1.5-1.1 1.1v22.8c0 3.7-1.5 5.7-4.9 5.7-3.4 0-4.9-2-4.9-5.7v-22.8c0-.6-.4-1.1-1.1-1.1h-8.9c-.6 0-1.1.5-1.1 1.1v25c0 7.7 5.6 14 16 14 10.5 0 16.2-6.2 16.2-14v-25c-.2-.6-.7-1.1-1.3-1.1m61.5 16.8h-5.8v-6.8h5.8c3.2 0 4.5 1.5 4.5 3.4s-1.3 3.4-4.5 3.4m8.8 7.9c4.8-2.4 7.2-6 7.2-11.5 0-6.9-5.6-13.1-15.1-13.1h-17.1c-.6 0-1 .6-1 1.1v37.2c0 .6.5 1 1 1h9.2c.6 0 1-.5 1-1v-12h3.6l6.5 12.1c.3.5.9.9 1.5.9h10.6c.6 0 .8-.4.5-.9zm-126.5 5c-5.1 0-8.6-4.5-8.6-10s3.5-10 8.6-10 8.6 4.5 8.6 10c0 5.6-3.5 10-8.6 10m20.4 4.8c-1.3.5-3.6 1.1-6.3.5.4-.4.8-.7 1.2-1.1 5.3-5.6 6.8-14 4.2-21.2-2.7-7.4-9.8-12.5-17.7-13.1-8-.6-16.1 3.3-19.9 10.2-4 7.3-3.3 16.9 2.2 23.3 4.7 5.5 12.2 7.8 19.1 6.8l.3.3c3.9 3.6 10.1 5.7 15.5 5.7l2.2-10.8c0-.4-.3-.8-.8-.6m-174-4.8c-5.1 0-8.6-4.5-8.6-10s3.5-10 8.6-10 8.6 4.5 8.6 10c.1 5.6-3.4 10-8.6 10m1.8-30.2c-8-.6-16.1 3.3-19.9 10.2-4 7.3-3.3 16.9 2.2 23.3 7.8 9.1 23 9.4 31.2.8 5.3-5.6 6.8-14 4.2-21.2-2.7-7.4-9.8-12.4-17.7-13.1" fill="#0D389E"/><path d="M87.2 21.1L83.7 38c-.4 1.8-2.1 3.4-4.2 3.4H49.1c-3.4 0-6.2 2.8-6.2 6.2v3.7c0 3.4 2.8 6.2 6.2 6.2h25.7c2.4 0 4.4 2.3 3.9 4.8-.5 2.6-3.2 15.8-3.5 17.2-.2 1.5-1.8 3.4-4.2 3.4H50c-4.4.1-5.3.2-7.9 3.4-2.6 3.2-25.6 32-25.6 32-.2.3-.4.2-.4-.1V20.3c0-2.3 1.9-4.2 4.2-4.2h63.1c2.2 0 4.4 2.2 3.8 5M91.8 0H13.9C3.2 0 0 8.1 0 13.2V137c0 6.1 3.1 7.9 4.8 8.6 1.7.7 6.2 1.2 9.4-2l37.6-43.8c.6-.7.9-.7 1.3-.7h23.4c10 0 11.9-6.9 13-11.1.9-3.5 11.2-53.5 14.4-69.3C106.3 6.5 103.2 0 91.8 0" fill="#FA4778"/></svg>