<svg xmlns="http://www.w3.org/2000/svg" height="800" width="1200" viewBox="-7.95534 -5.106625 68.94628 30.63975"><path d="M51.1108 7.7004c-1.2432-1.2425-2.8744-1.9268-4.5942-1.9268-1.2577 0-2.5213.4684-3.216.931-1.4379.9577-2.6197 1.9974-4.7473 4.7462v1.976c1.8052-2.3517 3.5133-4.2048 4.8101-5.224.8524-.6844 2.0617-1.1084 3.1532-1.1084 2.8173 0 5.1985 2.3801 5.1985 5.1988v1.1893c0 1.3927-.5468 2.7012-1.5434 3.6861-.9864.9758-2.2856 1.5131-3.6551 1.5131-2.3153 0-4.3533-1.5893-4.9072-3.7596l-.9306 1.1282c.6787 2.274 3.1302 3.9518 5.8378 3.9518 1.7198 0 3.351-.6854 4.5942-1.9254 1.2414-1.2425 1.9248-2.8737 1.9248-4.5942v-1.1893c0-1.7197-.6834-3.3517-1.9248-4.5928m-28.286-.606c.897 0 1.6728.1926 2.373.5891.3292-.4113.6615-.7454.9092-.9927-.7409-.5659-1.9953-.9172-3.2823-.9172-1.834 0-3.4995.6614-4.6887 1.8633-1.1804 1.191-1.8324 2.8445-1.8324 4.6563v7.709h1.3205v-7.709c0-3.061 2.1385-5.1988 5.2006-5.1988M35.373 20.002v-7.7089c0-2.37-1.8566-4.227-4.227-4.227-1.1038 0-2.1575.447-2.9696 1.258-.8104.8104-1.257 1.866-1.257 2.969v1.1893c0 2.2905 1.9364 4.2273 4.2266 4.2273.628 0 1.4828-.1545 2.006-.5839v-1.3955c-.514.413-1.2602.659-2.006.659-1.629 0-2.9061-1.2778-2.9061-2.907v-1.1892c0-1.6294 1.277-2.905 2.9061-2.905 1.6306 0 2.9066 1.2756 2.9066 2.905v7.709zM0 11.5281v.4265c0 2.2895.8685 4.426 2.4465 6.0148 1.5741 1.5854 3.684 2.4571 5.9411 2.4571 1.8147 0 3.4216-.4106 4.778-1.2174 1.1184-.6668 1.614-1.3406 1.6567-1.4023v-7.1085H8.067v1.3212h5.4349v5.377l-.0053.0046c-.6364.6375-2.147 1.704-5.109 1.704-1.93 0-3.7168-.7356-5.0344-2.0744-1.311-1.3324-2.0328-3.1355-2.0328-5.0761v-.4265c0-1.8324.8266-3.6605 2.2666-5.013 1.4704-1.3783 3.386-2.1382 5.395-2.1382 1.8737 0 3.179.2843 4.2274.9193v-1.482c-1.0915-.4642-2.396-.6727-4.2273-.6727C4.1137 3.1415 0 6.9829 0 11.528m22.8247-2.14c.501 0 .9254.083 1.2633.2473.1644-.41.333-.7479.579-1.1582-.3592-.2568-1.214-.411-1.8423-.411-2.4095 0-4.227 1.8172-4.227 4.227v7.709h1.3205v-7.709c0-1.7113 1.1955-2.905 2.9065-2.905m-9.6153-1.5505V6.2763c-1.1948-.641-2.4987-.9268-4.2273-.9268-1.764 0-3.436.6474-4.7103 1.82-1.2753 1.1769-1.9784 2.7249-1.9784 4.3586v.4265c0 3.4075 2.7333 6.1792 6.0942 6.1792 2.7337 0 3.856-.8946 4.1417-1.1775v-3.9646H8.067v1.3201h3.2268v1.9865l-.0116.004c-.4152.1654-1.2774.5104-2.8946.5104-1.282 0-2.4814-.4985-3.3782-1.4062-.901-.9109-1.3955-2.1375-1.3955-3.452v-.4264c0-2.6332 2.4585-4.8574 5.3682-4.8574 2.013 0 3.2032.326 4.2273 1.167m31.1711 2.4877c.5958-.5944 1.3758-.9373 2.136-.9373 1.6292 0 2.907 1.2757 2.907 2.9051v1.1893c0 1.629-1.2778 2.9068-2.907 2.9068-.7887 0-1.5507-.4335-2.1476-1.217-.5292-.6929-.8721-1.6302-.925-2.4727l-1.0693 1.3057c.21.9987.732 1.9558 1.4697 2.6285.7613.6929 1.7102 1.076 2.6723 1.076 2.3315 0 4.2266-1.8965 4.2266-4.2273v-1.1893c0-1.103-.4466-2.1586-1.257-2.969-.8117-.811-1.8658-1.258-2.9696-1.258-.6978 0-1.8077.2502-3.1302 1.4394l-.0046.0046c-.3538.3542-1.185 1.1853-1.6905 1.778-.8502.9274-2.0856 2.3276-3.138 3.7285v2.062c1.168-1.5007 1.8405-2.3414 2.9383-3.6093.9832-1.1472 2.2003-2.5414 2.8889-3.144m-19.7534 3.157c0 1.7206.684 3.3518 1.9254 4.5943 1.2425 1.24 2.8741 1.9254 4.5935 1.9254.7285 0 1.4768-.1555 2.006-.4162v-1.3194c-.6181.259-1.365.4152-2.006.4152-2.8172 0-5.1992-2.3805-5.1992-5.1992v-1.1893c0-2.8187 2.382-5.1988 5.1992-5.1988 1.401 0 2.7104.5362 3.6873 1.513.9758.9758 1.512 2.285 1.512 3.6858v7.709h1.3204v-7.963c-.0822-1.6824-.8004-3.2564-2.022-4.4333-1.2235-1.1815-2.8227-1.8323-4.4977-1.8323-1.7194 0-3.351.6843-4.5935 1.9268-1.2414 1.2411-1.9254 2.873-1.9254 4.5928zm15.2858-5.112c.4043-.4855.8227-.9787 1.3187-1.395V0H39.913zm2.2917-1.9354V0h1.3197v5.5294c-.3584.181-.8594.5253-1.3197.9056" fill="#1aae48"/></svg>