<svg id="Layer_1" data-name="Layer 1" xmlns="http://www.w3.org/2000/svg" viewBox="0 0 165.18 192"><title>Threads logo - Brandlogos.net</title><path d="M301.94,249q-1.24-.59-2.52-1.14c-1.48-27.31-16.4-42.94-41.46-43.1h-.34c-15,0-27.45,6.4-35.12,18l13.78,9.45c5.73-8.69,14.72-10.55,21.35-10.55h.23c8.25.05,14.47,2.45,18.5,7.13,2.93,3.41,4.89,8.11,5.86,14a105.42,105.42,0,0,0-23.68-1.14c-23.82,1.37-39.13,15.26-38.11,34.57A29.77,29.77,0,0,0,234.18,300c7,4.65,16.12,6.93,25.56,6.41,12.46-.68,22.23-5.44,29-14.13,5.18-6.6,8.45-15.15,9.9-25.93,5.94,3.58,10.34,8.3,12.77,14,4.13,9.63,4.37,25.47-8.55,38.38C291.59,330,278,334.91,257.42,335.06c-22.81-.17-40.06-7.48-51.28-21.74C195.64,300,190.22,280.68,190,256c.2-24.68,5.63-44,16.13-57.32,11.22-14.26,28.47-21.57,51.28-21.74,23,.17,40.53,7.52,52.17,21.85,5.71,7,10,15.86,12.85,26.16l16.15-4.31C335.15,208,329.74,197,322.37,188c-14.93-18.37-36.76-27.78-64.9-28h-.11c-28.08.19-49.66,9.64-64.17,28.08-12.91,16.41-19.56,39.24-19.79,67.85v.13c.22,28.62,6.88,51.45,19.79,67.85,14.5,18.44,36.09,27.88,64.17,28.08h.11c25-.17,42.55-6.71,57-21.19,19-18.95,18.39-42.69,12.14-57.27C322.18,263.09,313.64,254.6,301.94,249Zm-43.1,40.52c-10.44.59-21.29-4.1-21.82-14.14-.4-7.44,5.3-15.75,22.46-16.74q2.95-.17,5.79-.17a81.59,81.59,0,0,1,17.37,1.76C280.67,284.93,269.07,288.95,258.85,289.51Z" transform="translate(-173.41 -160)"/></svg>