<svg xmlns="http://www.w3.org/2000/svg" viewBox="0 0 313.91 377.12"><defs><style>.cls-1,.cls-2,.cls-3{fill:none;stroke:#231f20;stroke-miterlimit:10;}.cls-1{stroke-width:11px;}.cls-2{stroke-width:9px;}.cls-3{stroke-width:27px;}</style></defs><title>Asset 7</title><g id="Layer_2" data-name="Layer 2"><g id="Layer_2-2" data-name="Layer 2"><path class="cls-1" d="M60.48,146V51A45.45,45.45,0,0,1,105.93,5.5H263A45.45,45.45,0,0,1,308.41,51V326.16A45.45,45.45,0,0,1,263,371.62h-157a45.45,45.45,0,0,1-45.45-45.46V240.58"/><path class="cls-1" d="M250.56,5.5V22.86a19,19,0,0,1-19,19H139.82a19,19,0,0,1-19-19V5.5"/><line class="cls-2" x1="120.81" y1="5.5" x2="250.56" y2="5.5"/><path class="cls-2" d="M130.68,257v14.71c0,8.9,6.84,16.12,15.27,16.12H219.6c8.42,0,15.26-7.22,15.26-16.12V257"/><path class="cls-2" d="M130.68,257v14.71c0,8.9,6.84,16.12,15.27,16.12H219.6c8.42,0,15.26-7.22,15.26-16.12V257"/><path class="cls-1" d="M130.68,257v14.71c0,8.9,6.84,16.12,15.27,16.12H219.6c8.42,0,15.26-7.22,15.26-16.12V257"/><circle class="cls-3" cx="64.33" cy="193.59" r="50.83"/><line class="cls-3" x1="89.74" y1="237.6" x2="38.91" y2="149.57"/><line class="cls-1" x1="183.11" y1="147.42" x2="184.78" y2="263.91"/><polyline class="cls-1" points="146.68 219.19 184.78 263.91 222.88 219.19"/></g></g></svg>